<mxfile host="app.diagrams.net" modified="2024-01-05T04:16:35.609Z" agent="Mozilla/5.0 (Windows NT 10.0; Win64; x64) AppleWebKit/537.36 (KHTML, like Gecko) Chrome/120.0.0.0 Safari/537.36" etag="K6NqeYBRmNTthUVINtiF" version="22.1.16" type="github">
  <diagram id="R2lEEEUBdFMjLlhIrx00" name="Page-1">
    <mxGraphModel dx="801" dy="1037" grid="1" gridSize="10" guides="1" tooltips="1" connect="1" arrows="1" fold="1" page="1" pageScale="1" pageWidth="850" pageHeight="1100" math="0" shadow="0" extFonts="Permanent Marker^https://fonts.googleapis.com/css?family=Permanent+Marker">
      <root>
        <mxCell id="0" />
        <mxCell id="1" parent="0" />
        <mxCell id="T3U-AoPDwU73Mw-AAo-e-1" value="사원" style="rounded=0;whiteSpace=wrap;html=1;" vertex="1" parent="1">
          <mxGeometry x="180" y="30" width="80" height="40" as="geometry" />
        </mxCell>
        <mxCell id="T3U-AoPDwU73Mw-AAo-e-2" value="사원번호" style="ellipse;whiteSpace=wrap;html=1;" vertex="1" parent="1">
          <mxGeometry x="10" y="130" width="72" height="40" as="geometry" />
        </mxCell>
        <mxCell id="T3U-AoPDwU73Mw-AAo-e-3" value="사원명" style="ellipse;whiteSpace=wrap;html=1;" vertex="1" parent="1">
          <mxGeometry x="110" y="140" width="54" height="30" as="geometry" />
        </mxCell>
        <mxCell id="T3U-AoPDwU73Mw-AAo-e-4" value="직책" style="ellipse;whiteSpace=wrap;html=1;" vertex="1" parent="1">
          <mxGeometry x="200" y="140" width="57.14" height="40" as="geometry" />
        </mxCell>
        <mxCell id="T3U-AoPDwU73Mw-AAo-e-5" value="입사일" style="ellipse;whiteSpace=wrap;html=1;" vertex="1" parent="1">
          <mxGeometry x="379.99999999999994" y="125" width="66.67" height="40" as="geometry" />
        </mxCell>
        <mxCell id="T3U-AoPDwU73Mw-AAo-e-6" value="" style="endArrow=none;html=1;rounded=0;exitX=0.917;exitY=0.125;exitDx=0;exitDy=0;exitPerimeter=0;entryX=0.5;entryY=1;entryDx=0;entryDy=0;" edge="1" parent="1" source="T3U-AoPDwU73Mw-AAo-e-2" target="T3U-AoPDwU73Mw-AAo-e-1">
          <mxGeometry width="50" height="50" relative="1" as="geometry">
            <mxPoint x="400" y="430" as="sourcePoint" />
            <mxPoint x="450" y="380" as="targetPoint" />
          </mxGeometry>
        </mxCell>
        <mxCell id="T3U-AoPDwU73Mw-AAo-e-7" value="" style="endArrow=none;html=1;rounded=0;entryX=0.5;entryY=1;entryDx=0;entryDy=0;" edge="1" parent="1" source="T3U-AoPDwU73Mw-AAo-e-3" target="T3U-AoPDwU73Mw-AAo-e-1">
          <mxGeometry width="50" height="50" relative="1" as="geometry">
            <mxPoint x="400" y="430" as="sourcePoint" />
            <mxPoint x="450" y="380" as="targetPoint" />
          </mxGeometry>
        </mxCell>
        <mxCell id="T3U-AoPDwU73Mw-AAo-e-8" value="" style="endArrow=none;html=1;rounded=0;entryX=0.5;entryY=1;entryDx=0;entryDy=0;exitX=0.5;exitY=0;exitDx=0;exitDy=0;" edge="1" parent="1" source="T3U-AoPDwU73Mw-AAo-e-4" target="T3U-AoPDwU73Mw-AAo-e-1">
          <mxGeometry width="50" height="50" relative="1" as="geometry">
            <mxPoint x="400" y="430" as="sourcePoint" />
            <mxPoint x="450" y="380" as="targetPoint" />
          </mxGeometry>
        </mxCell>
        <mxCell id="T3U-AoPDwU73Mw-AAo-e-9" value="" style="endArrow=none;html=1;rounded=0;exitX=0.5;exitY=0;exitDx=0;exitDy=0;entryX=0.5;entryY=1;entryDx=0;entryDy=0;" edge="1" parent="1" source="T3U-AoPDwU73Mw-AAo-e-5" target="T3U-AoPDwU73Mw-AAo-e-1">
          <mxGeometry width="50" height="50" relative="1" as="geometry">
            <mxPoint x="400" y="430" as="sourcePoint" />
            <mxPoint x="450" y="380" as="targetPoint" />
          </mxGeometry>
        </mxCell>
        <mxCell id="T3U-AoPDwU73Mw-AAo-e-11" value="부서" style="rounded=0;whiteSpace=wrap;html=1;" vertex="1" parent="1">
          <mxGeometry x="611.25" y="30" width="80" height="40" as="geometry" />
        </mxCell>
        <mxCell id="T3U-AoPDwU73Mw-AAo-e-12" value="급여" style="ellipse;whiteSpace=wrap;html=1;" vertex="1" parent="1">
          <mxGeometry x="290" y="135" width="67.5" height="45" as="geometry" />
        </mxCell>
        <mxCell id="T3U-AoPDwU73Mw-AAo-e-13" value="부서번호" style="ellipse;whiteSpace=wrap;html=1;" vertex="1" parent="1">
          <mxGeometry x="500" y="122.5" width="67.5" height="45" as="geometry" />
        </mxCell>
        <mxCell id="T3U-AoPDwU73Mw-AAo-e-14" value="부서명" style="ellipse;whiteSpace=wrap;html=1;" vertex="1" parent="1">
          <mxGeometry x="617.5" y="125" width="67.5" height="45" as="geometry" />
        </mxCell>
        <mxCell id="T3U-AoPDwU73Mw-AAo-e-15" value="위치" style="ellipse;whiteSpace=wrap;html=1;" vertex="1" parent="1">
          <mxGeometry x="730" y="127.5" width="67.5" height="45" as="geometry" />
        </mxCell>
        <mxCell id="T3U-AoPDwU73Mw-AAo-e-16" value="" style="endArrow=none;html=1;rounded=0;entryX=0.5;entryY=1;entryDx=0;entryDy=0;exitX=0.5;exitY=0;exitDx=0;exitDy=0;" edge="1" parent="1" source="T3U-AoPDwU73Mw-AAo-e-12" target="T3U-AoPDwU73Mw-AAo-e-1">
          <mxGeometry width="50" height="50" relative="1" as="geometry">
            <mxPoint x="460" y="120" as="sourcePoint" />
            <mxPoint x="510" y="80" as="targetPoint" />
            <Array as="points" />
          </mxGeometry>
        </mxCell>
        <mxCell id="T3U-AoPDwU73Mw-AAo-e-17" value="" style="endArrow=none;html=1;rounded=0;exitX=0.681;exitY=0.067;exitDx=0;exitDy=0;exitPerimeter=0;entryX=0.5;entryY=1;entryDx=0;entryDy=0;" edge="1" parent="1" source="T3U-AoPDwU73Mw-AAo-e-13" target="T3U-AoPDwU73Mw-AAo-e-11">
          <mxGeometry width="50" height="50" relative="1" as="geometry">
            <mxPoint x="580" y="120" as="sourcePoint" />
            <mxPoint x="620" y="70" as="targetPoint" />
          </mxGeometry>
        </mxCell>
        <mxCell id="T3U-AoPDwU73Mw-AAo-e-18" value="" style="endArrow=none;html=1;rounded=0;entryX=0.5;entryY=1;entryDx=0;entryDy=0;exitX=0.5;exitY=0;exitDx=0;exitDy=0;" edge="1" parent="1" source="T3U-AoPDwU73Mw-AAo-e-14" target="T3U-AoPDwU73Mw-AAo-e-11">
          <mxGeometry width="50" height="50" relative="1" as="geometry">
            <mxPoint x="400" y="330" as="sourcePoint" />
            <mxPoint x="450" y="280" as="targetPoint" />
          </mxGeometry>
        </mxCell>
        <mxCell id="T3U-AoPDwU73Mw-AAo-e-19" value="" style="endArrow=none;html=1;rounded=0;entryX=0.5;entryY=1;entryDx=0;entryDy=0;exitX=0.5;exitY=0;exitDx=0;exitDy=0;" edge="1" parent="1" source="T3U-AoPDwU73Mw-AAo-e-15" target="T3U-AoPDwU73Mw-AAo-e-11">
          <mxGeometry width="50" height="50" relative="1" as="geometry">
            <mxPoint x="590" y="260" as="sourcePoint" />
            <mxPoint x="640" y="210" as="targetPoint" />
          </mxGeometry>
        </mxCell>
        <mxCell id="T3U-AoPDwU73Mw-AAo-e-20" value="근무" style="rhombus;whiteSpace=wrap;html=1;" vertex="1" parent="1">
          <mxGeometry x="390" y="10" width="80" height="80" as="geometry" />
        </mxCell>
        <mxCell id="T3U-AoPDwU73Mw-AAo-e-21" value="" style="endArrow=none;html=1;rounded=0;exitX=1;exitY=0.5;exitDx=0;exitDy=0;entryX=0;entryY=0.5;entryDx=0;entryDy=0;" edge="1" parent="1" source="T3U-AoPDwU73Mw-AAo-e-1" target="T3U-AoPDwU73Mw-AAo-e-20">
          <mxGeometry width="50" height="50" relative="1" as="geometry">
            <mxPoint x="400" y="330" as="sourcePoint" />
            <mxPoint x="450" y="280" as="targetPoint" />
          </mxGeometry>
        </mxCell>
        <mxCell id="T3U-AoPDwU73Mw-AAo-e-22" value="" style="endArrow=none;html=1;rounded=0;exitX=1;exitY=0.5;exitDx=0;exitDy=0;entryX=0;entryY=0.5;entryDx=0;entryDy=0;" edge="1" parent="1" source="T3U-AoPDwU73Mw-AAo-e-20" target="T3U-AoPDwU73Mw-AAo-e-11">
          <mxGeometry width="50" height="50" relative="1" as="geometry">
            <mxPoint x="400" y="330" as="sourcePoint" />
            <mxPoint x="450" y="280" as="targetPoint" />
          </mxGeometry>
        </mxCell>
        <mxCell id="T3U-AoPDwU73Mw-AAo-e-45" value="고객" style="rounded=0;whiteSpace=wrap;html=1;" vertex="1" parent="1">
          <mxGeometry x="189.59" y="240" width="80" height="40" as="geometry" />
        </mxCell>
        <mxCell id="T3U-AoPDwU73Mw-AAo-e-46" value="주민번호" style="ellipse;whiteSpace=wrap;html=1;" vertex="1" parent="1">
          <mxGeometry x="19.59" y="347.5" width="72" height="40" as="geometry" />
        </mxCell>
        <mxCell id="T3U-AoPDwU73Mw-AAo-e-47" value="고객명" style="ellipse;whiteSpace=wrap;html=1;" vertex="1" parent="1">
          <mxGeometry x="119.59" y="350" width="60.41" height="37.5" as="geometry" />
        </mxCell>
        <mxCell id="T3U-AoPDwU73Mw-AAo-e-48" value="전화" style="ellipse;whiteSpace=wrap;html=1;" vertex="1" parent="1">
          <mxGeometry x="209.59" y="350" width="57.14" height="40" as="geometry" />
        </mxCell>
        <mxCell id="T3U-AoPDwU73Mw-AAo-e-49" value="생일" style="ellipse;whiteSpace=wrap;html=1;" vertex="1" parent="1">
          <mxGeometry x="389.99999999999994" y="347.5" width="66.67" height="40" as="geometry" />
        </mxCell>
        <mxCell id="T3U-AoPDwU73Mw-AAo-e-50" value="" style="endArrow=none;html=1;rounded=0;exitX=0.917;exitY=0.125;exitDx=0;exitDy=0;exitPerimeter=0;entryX=0.5;entryY=1;entryDx=0;entryDy=0;" edge="1" parent="1" source="T3U-AoPDwU73Mw-AAo-e-46" target="T3U-AoPDwU73Mw-AAo-e-45">
          <mxGeometry width="50" height="50" relative="1" as="geometry">
            <mxPoint x="409.59" y="640" as="sourcePoint" />
            <mxPoint x="459.59" y="590" as="targetPoint" />
          </mxGeometry>
        </mxCell>
        <mxCell id="T3U-AoPDwU73Mw-AAo-e-51" value="" style="endArrow=none;html=1;rounded=0;entryX=0.5;entryY=1;entryDx=0;entryDy=0;" edge="1" parent="1" source="T3U-AoPDwU73Mw-AAo-e-47" target="T3U-AoPDwU73Mw-AAo-e-45">
          <mxGeometry width="50" height="50" relative="1" as="geometry">
            <mxPoint x="409.59" y="640" as="sourcePoint" />
            <mxPoint x="459.59" y="590" as="targetPoint" />
          </mxGeometry>
        </mxCell>
        <mxCell id="T3U-AoPDwU73Mw-AAo-e-52" value="" style="endArrow=none;html=1;rounded=0;entryX=0.5;entryY=1;entryDx=0;entryDy=0;exitX=0.5;exitY=0;exitDx=0;exitDy=0;" edge="1" parent="1" source="T3U-AoPDwU73Mw-AAo-e-48" target="T3U-AoPDwU73Mw-AAo-e-45">
          <mxGeometry width="50" height="50" relative="1" as="geometry">
            <mxPoint x="409.59" y="640" as="sourcePoint" />
            <mxPoint x="459.59" y="590" as="targetPoint" />
          </mxGeometry>
        </mxCell>
        <mxCell id="T3U-AoPDwU73Mw-AAo-e-53" value="" style="endArrow=none;html=1;rounded=0;exitX=0.5;exitY=0;exitDx=0;exitDy=0;entryX=0.5;entryY=1;entryDx=0;entryDy=0;" edge="1" parent="1" source="T3U-AoPDwU73Mw-AAo-e-49" target="T3U-AoPDwU73Mw-AAo-e-45">
          <mxGeometry width="50" height="50" relative="1" as="geometry">
            <mxPoint x="409.59" y="640" as="sourcePoint" />
            <mxPoint x="459.59" y="590" as="targetPoint" />
          </mxGeometry>
        </mxCell>
        <mxCell id="T3U-AoPDwU73Mw-AAo-e-54" value="예금계좌" style="rounded=0;whiteSpace=wrap;html=1;" vertex="1" parent="1">
          <mxGeometry x="620.84" y="240" width="80" height="40" as="geometry" />
        </mxCell>
        <mxCell id="T3U-AoPDwU73Mw-AAo-e-55" value="이메일" style="ellipse;whiteSpace=wrap;html=1;" vertex="1" parent="1">
          <mxGeometry x="299.59" y="345" width="67.5" height="45" as="geometry" />
        </mxCell>
        <mxCell id="T3U-AoPDwU73Mw-AAo-e-56" value="ID" style="ellipse;whiteSpace=wrap;html=1;" vertex="1" parent="1">
          <mxGeometry x="509.59" y="332.5" width="67.5" height="45" as="geometry" />
        </mxCell>
        <mxCell id="T3U-AoPDwU73Mw-AAo-e-57" value="계좌종류" style="ellipse;whiteSpace=wrap;html=1;" vertex="1" parent="1">
          <mxGeometry x="590" y="332.5" width="67.5" height="45" as="geometry" />
        </mxCell>
        <mxCell id="T3U-AoPDwU73Mw-AAo-e-58" value="카드신청" style="ellipse;whiteSpace=wrap;html=1;" vertex="1" parent="1">
          <mxGeometry x="672.09" y="332.5" width="67.5" height="45" as="geometry" />
        </mxCell>
        <mxCell id="T3U-AoPDwU73Mw-AAo-e-59" value="" style="endArrow=none;html=1;rounded=0;entryX=0.5;entryY=1;entryDx=0;entryDy=0;exitX=0.5;exitY=0;exitDx=0;exitDy=0;" edge="1" parent="1" source="T3U-AoPDwU73Mw-AAo-e-55" target="T3U-AoPDwU73Mw-AAo-e-45">
          <mxGeometry width="50" height="50" relative="1" as="geometry">
            <mxPoint x="469.59" y="330" as="sourcePoint" />
            <mxPoint x="519.59" y="290" as="targetPoint" />
            <Array as="points" />
          </mxGeometry>
        </mxCell>
        <mxCell id="T3U-AoPDwU73Mw-AAo-e-60" value="" style="endArrow=none;html=1;rounded=0;exitX=0.681;exitY=0.067;exitDx=0;exitDy=0;exitPerimeter=0;entryX=0.5;entryY=1;entryDx=0;entryDy=0;" edge="1" parent="1" source="T3U-AoPDwU73Mw-AAo-e-56" target="T3U-AoPDwU73Mw-AAo-e-54">
          <mxGeometry width="50" height="50" relative="1" as="geometry">
            <mxPoint x="589.59" y="330" as="sourcePoint" />
            <mxPoint x="629.59" y="280" as="targetPoint" />
          </mxGeometry>
        </mxCell>
        <mxCell id="T3U-AoPDwU73Mw-AAo-e-61" value="" style="endArrow=none;html=1;rounded=0;entryX=0.5;entryY=1;entryDx=0;entryDy=0;exitX=0.5;exitY=0;exitDx=0;exitDy=0;" edge="1" parent="1" source="T3U-AoPDwU73Mw-AAo-e-57" target="T3U-AoPDwU73Mw-AAo-e-54">
          <mxGeometry width="50" height="50" relative="1" as="geometry">
            <mxPoint x="409.59" y="540" as="sourcePoint" />
            <mxPoint x="459.59" y="490" as="targetPoint" />
          </mxGeometry>
        </mxCell>
        <mxCell id="T3U-AoPDwU73Mw-AAo-e-62" value="" style="endArrow=none;html=1;rounded=0;entryX=0.5;entryY=1;entryDx=0;entryDy=0;exitX=0.5;exitY=0;exitDx=0;exitDy=0;" edge="1" parent="1" source="T3U-AoPDwU73Mw-AAo-e-58" target="T3U-AoPDwU73Mw-AAo-e-54">
          <mxGeometry width="50" height="50" relative="1" as="geometry">
            <mxPoint x="599.59" y="470" as="sourcePoint" />
            <mxPoint x="649.59" y="420" as="targetPoint" />
          </mxGeometry>
        </mxCell>
        <mxCell id="T3U-AoPDwU73Mw-AAo-e-63" value="개설" style="rhombus;whiteSpace=wrap;html=1;" vertex="1" parent="1">
          <mxGeometry x="399.59" y="220" width="80" height="80" as="geometry" />
        </mxCell>
        <mxCell id="T3U-AoPDwU73Mw-AAo-e-64" value="" style="endArrow=none;html=1;rounded=0;exitX=1;exitY=0.5;exitDx=0;exitDy=0;entryX=0;entryY=0.5;entryDx=0;entryDy=0;" edge="1" parent="1" source="T3U-AoPDwU73Mw-AAo-e-45" target="T3U-AoPDwU73Mw-AAo-e-63">
          <mxGeometry width="50" height="50" relative="1" as="geometry">
            <mxPoint x="409.59" y="540" as="sourcePoint" />
            <mxPoint x="459.59" y="490" as="targetPoint" />
          </mxGeometry>
        </mxCell>
        <mxCell id="T3U-AoPDwU73Mw-AAo-e-65" value="" style="endArrow=none;html=1;rounded=0;exitX=1;exitY=0.5;exitDx=0;exitDy=0;entryX=0;entryY=0.5;entryDx=0;entryDy=0;" edge="1" parent="1" source="T3U-AoPDwU73Mw-AAo-e-63" target="T3U-AoPDwU73Mw-AAo-e-54">
          <mxGeometry width="50" height="50" relative="1" as="geometry">
            <mxPoint x="409.59" y="540" as="sourcePoint" />
            <mxPoint x="459.59" y="490" as="targetPoint" />
          </mxGeometry>
        </mxCell>
        <mxCell id="T3U-AoPDwU73Mw-AAo-e-66" value="결제일자" style="ellipse;whiteSpace=wrap;html=1;" vertex="1" parent="1">
          <mxGeometry x="750" y="335" width="67.5" height="45" as="geometry" />
        </mxCell>
        <mxCell id="T3U-AoPDwU73Mw-AAo-e-67" value="" style="endArrow=none;html=1;rounded=0;entryX=0.5;entryY=1;entryDx=0;entryDy=0;exitX=0.5;exitY=0;exitDx=0;exitDy=0;" edge="1" parent="1" source="T3U-AoPDwU73Mw-AAo-e-66" target="T3U-AoPDwU73Mw-AAo-e-54">
          <mxGeometry width="50" height="50" relative="1" as="geometry">
            <mxPoint x="780" y="340" as="sourcePoint" />
            <mxPoint x="830" y="290" as="targetPoint" />
          </mxGeometry>
        </mxCell>
        <object label="고객" 카드="카드번호" 거래번호="" id="T3U-AoPDwU73Mw-AAo-e-106">
          <mxCell style="shape=table;startSize=29;container=1;collapsible=1;childLayout=tableLayout;fixedRows=1;rowLines=0;fontStyle=1;align=center;resizeLast=1;html=1;swimlaneLine=1;fillColor=#d5e8d4;strokeColor=#82b366;" vertex="1" parent="1">
            <mxGeometry x="561.25" y="600" width="180" height="220" as="geometry" />
          </mxCell>
        </object>
        <mxCell id="T3U-AoPDwU73Mw-AAo-e-107" value="" style="shape=tableRow;horizontal=0;startSize=0;swimlaneHead=0;swimlaneBody=0;fillColor=none;collapsible=0;dropTarget=0;points=[[0,0.5],[1,0.5]];portConstraint=eastwest;top=0;left=0;right=0;bottom=1;" vertex="1" parent="T3U-AoPDwU73Mw-AAo-e-106">
          <mxGeometry y="29" width="180" height="20" as="geometry" />
        </mxCell>
        <mxCell id="T3U-AoPDwU73Mw-AAo-e-108" value="PK&lt;br&gt;FK" style="shape=partialRectangle;connectable=0;fillColor=none;top=0;left=0;bottom=0;right=0;fontStyle=1;overflow=hidden;whiteSpace=wrap;html=1;" vertex="1" parent="T3U-AoPDwU73Mw-AAo-e-107">
          <mxGeometry width="30" height="20" as="geometry">
            <mxRectangle width="30" height="20" as="alternateBounds" />
          </mxGeometry>
        </mxCell>
        <mxCell id="T3U-AoPDwU73Mw-AAo-e-109" value="계좌번호" style="shape=partialRectangle;connectable=0;fillColor=none;top=0;left=0;bottom=0;right=0;align=left;spacingLeft=6;fontStyle=5;overflow=hidden;whiteSpace=wrap;html=1;" vertex="1" parent="T3U-AoPDwU73Mw-AAo-e-107">
          <mxGeometry x="30" width="150" height="20" as="geometry">
            <mxRectangle width="150" height="20" as="alternateBounds" />
          </mxGeometry>
        </mxCell>
        <mxCell id="T3U-AoPDwU73Mw-AAo-e-110" value="" style="shape=tableRow;horizontal=0;startSize=0;swimlaneHead=0;swimlaneBody=0;fillColor=none;collapsible=0;dropTarget=0;points=[[0,0.5],[1,0.5]];portConstraint=eastwest;top=0;left=0;right=0;bottom=0;" vertex="1" parent="T3U-AoPDwU73Mw-AAo-e-106">
          <mxGeometry y="49" width="180" height="20" as="geometry" />
        </mxCell>
        <mxCell id="T3U-AoPDwU73Mw-AAo-e-111" value="" style="shape=partialRectangle;connectable=0;fillColor=none;top=0;left=0;bottom=0;right=0;editable=1;overflow=hidden;whiteSpace=wrap;html=1;" vertex="1" parent="T3U-AoPDwU73Mw-AAo-e-110">
          <mxGeometry width="30" height="20" as="geometry">
            <mxRectangle width="30" height="20" as="alternateBounds" />
          </mxGeometry>
        </mxCell>
        <mxCell id="T3U-AoPDwU73Mw-AAo-e-112" value="주민번호" style="shape=partialRectangle;connectable=0;fillColor=none;top=0;left=0;bottom=0;right=0;align=left;spacingLeft=6;overflow=hidden;whiteSpace=wrap;html=1;" vertex="1" parent="T3U-AoPDwU73Mw-AAo-e-110">
          <mxGeometry x="30" width="150" height="20" as="geometry">
            <mxRectangle width="150" height="20" as="alternateBounds" />
          </mxGeometry>
        </mxCell>
        <mxCell id="T3U-AoPDwU73Mw-AAo-e-113" value="" style="shape=tableRow;horizontal=0;startSize=0;swimlaneHead=0;swimlaneBody=0;fillColor=none;collapsible=0;dropTarget=0;points=[[0,0.5],[1,0.5]];portConstraint=eastwest;top=0;left=0;right=0;bottom=0;" vertex="1" parent="T3U-AoPDwU73Mw-AAo-e-106">
          <mxGeometry y="69" width="180" height="30" as="geometry" />
        </mxCell>
        <mxCell id="T3U-AoPDwU73Mw-AAo-e-114" value="" style="shape=partialRectangle;connectable=0;fillColor=none;top=0;left=0;bottom=0;right=0;editable=1;overflow=hidden;whiteSpace=wrap;html=1;" vertex="1" parent="T3U-AoPDwU73Mw-AAo-e-113">
          <mxGeometry width="30" height="30" as="geometry">
            <mxRectangle width="30" height="30" as="alternateBounds" />
          </mxGeometry>
        </mxCell>
        <mxCell id="T3U-AoPDwU73Mw-AAo-e-115" value="고객 이름" style="shape=partialRectangle;connectable=0;fillColor=none;top=0;left=0;bottom=0;right=0;align=left;spacingLeft=6;overflow=hidden;whiteSpace=wrap;html=1;" vertex="1" parent="T3U-AoPDwU73Mw-AAo-e-113">
          <mxGeometry x="30" width="150" height="30" as="geometry">
            <mxRectangle width="150" height="30" as="alternateBounds" />
          </mxGeometry>
        </mxCell>
        <object label="" ROW="" id="T3U-AoPDwU73Mw-AAo-e-116">
          <mxCell style="shape=tableRow;horizontal=0;startSize=0;swimlaneHead=0;swimlaneBody=0;fillColor=none;collapsible=0;dropTarget=0;points=[[0,0.5],[1,0.5]];portConstraint=eastwest;top=0;left=0;right=0;bottom=0;" vertex="1" parent="T3U-AoPDwU73Mw-AAo-e-106">
            <mxGeometry y="99" width="180" height="30" as="geometry" />
          </mxCell>
        </object>
        <mxCell id="T3U-AoPDwU73Mw-AAo-e-117" value="" style="shape=partialRectangle;connectable=0;fillColor=none;top=0;left=0;bottom=0;right=0;editable=1;overflow=hidden;whiteSpace=wrap;html=1;" vertex="1" parent="T3U-AoPDwU73Mw-AAo-e-116">
          <mxGeometry width="30" height="30" as="geometry">
            <mxRectangle width="30" height="30" as="alternateBounds" />
          </mxGeometry>
        </mxCell>
        <mxCell id="T3U-AoPDwU73Mw-AAo-e-118" value="고객 주소" style="shape=partialRectangle;connectable=1;fillColor=none;top=0;left=0;bottom=0;right=0;align=left;spacingLeft=6;overflow=hidden;whiteSpace=wrap;html=1;movable=1;resizable=1;rotatable=1;deletable=1;editable=1;locked=0;" vertex="1" parent="T3U-AoPDwU73Mw-AAo-e-116">
          <mxGeometry x="30" width="150" height="30" as="geometry">
            <mxRectangle width="150" height="30" as="alternateBounds" />
          </mxGeometry>
        </mxCell>
        <object label="" ROW="" id="T3U-AoPDwU73Mw-AAo-e-172">
          <mxCell style="shape=tableRow;horizontal=0;startSize=0;swimlaneHead=0;swimlaneBody=0;fillColor=none;collapsible=0;dropTarget=0;points=[[0,0.5],[1,0.5]];portConstraint=eastwest;top=0;left=0;right=0;bottom=0;" vertex="1" parent="T3U-AoPDwU73Mw-AAo-e-106">
            <mxGeometry y="129" width="180" height="30" as="geometry" />
          </mxCell>
        </object>
        <mxCell id="T3U-AoPDwU73Mw-AAo-e-173" value="" style="shape=partialRectangle;connectable=0;fillColor=none;top=0;left=0;bottom=0;right=0;editable=1;overflow=hidden;whiteSpace=wrap;html=1;" vertex="1" parent="T3U-AoPDwU73Mw-AAo-e-172">
          <mxGeometry width="30" height="30" as="geometry">
            <mxRectangle width="30" height="30" as="alternateBounds" />
          </mxGeometry>
        </mxCell>
        <mxCell id="T3U-AoPDwU73Mw-AAo-e-174" value="직업" style="shape=partialRectangle;connectable=1;fillColor=none;top=0;left=0;bottom=0;right=0;align=left;spacingLeft=6;overflow=hidden;whiteSpace=wrap;html=1;movable=1;resizable=1;rotatable=1;deletable=1;editable=1;locked=0;" vertex="1" parent="T3U-AoPDwU73Mw-AAo-e-172">
          <mxGeometry x="30" width="150" height="30" as="geometry">
            <mxRectangle width="150" height="30" as="alternateBounds" />
          </mxGeometry>
        </mxCell>
        <object label="" ROW="" id="T3U-AoPDwU73Mw-AAo-e-224">
          <mxCell style="shape=tableRow;horizontal=0;startSize=0;swimlaneHead=0;swimlaneBody=0;fillColor=none;collapsible=0;dropTarget=0;points=[[0,0.5],[1,0.5]];portConstraint=eastwest;top=0;left=0;right=0;bottom=0;" vertex="1" parent="T3U-AoPDwU73Mw-AAo-e-106">
            <mxGeometry y="159" width="180" height="30" as="geometry" />
          </mxCell>
        </object>
        <mxCell id="T3U-AoPDwU73Mw-AAo-e-225" value="" style="shape=partialRectangle;connectable=0;fillColor=none;top=0;left=0;bottom=0;right=0;editable=1;overflow=hidden;whiteSpace=wrap;html=1;" vertex="1" parent="T3U-AoPDwU73Mw-AAo-e-224">
          <mxGeometry width="30" height="30" as="geometry">
            <mxRectangle width="30" height="30" as="alternateBounds" />
          </mxGeometry>
        </mxCell>
        <mxCell id="T3U-AoPDwU73Mw-AAo-e-226" value="이메일" style="shape=partialRectangle;connectable=1;fillColor=none;top=0;left=0;bottom=0;right=0;align=left;spacingLeft=6;overflow=hidden;whiteSpace=wrap;html=1;movable=1;resizable=1;rotatable=1;deletable=1;editable=1;locked=0;" vertex="1" parent="T3U-AoPDwU73Mw-AAo-e-224">
          <mxGeometry x="30" width="150" height="30" as="geometry">
            <mxRectangle width="150" height="30" as="alternateBounds" />
          </mxGeometry>
        </mxCell>
        <object label="" ROW="" id="T3U-AoPDwU73Mw-AAo-e-227">
          <mxCell style="shape=tableRow;horizontal=0;startSize=0;swimlaneHead=0;swimlaneBody=0;fillColor=none;collapsible=0;dropTarget=0;points=[[0,0.5],[1,0.5]];portConstraint=eastwest;top=0;left=0;right=0;bottom=0;" vertex="1" parent="T3U-AoPDwU73Mw-AAo-e-106">
            <mxGeometry y="189" width="180" height="30" as="geometry" />
          </mxCell>
        </object>
        <mxCell id="T3U-AoPDwU73Mw-AAo-e-228" value="" style="shape=partialRectangle;connectable=0;fillColor=none;top=0;left=0;bottom=0;right=0;editable=1;overflow=hidden;whiteSpace=wrap;html=1;" vertex="1" parent="T3U-AoPDwU73Mw-AAo-e-227">
          <mxGeometry width="30" height="30" as="geometry">
            <mxRectangle width="30" height="30" as="alternateBounds" />
          </mxGeometry>
        </mxCell>
        <mxCell id="T3U-AoPDwU73Mw-AAo-e-229" value="전화번호" style="shape=partialRectangle;connectable=1;fillColor=none;top=0;left=0;bottom=0;right=0;align=left;spacingLeft=6;overflow=hidden;whiteSpace=wrap;html=1;movable=1;resizable=1;rotatable=1;deletable=1;editable=1;locked=0;" vertex="1" parent="T3U-AoPDwU73Mw-AAo-e-227">
          <mxGeometry x="30" width="150" height="30" as="geometry">
            <mxRectangle width="150" height="30" as="alternateBounds" />
          </mxGeometry>
        </mxCell>
        <object label="예금계좌" 카드="카드번호" 거래번호="" id="T3U-AoPDwU73Mw-AAo-e-123">
          <mxCell style="shape=table;startSize=30;container=1;collapsible=1;childLayout=tableLayout;fixedRows=1;rowLines=0;fontStyle=1;align=center;resizeLast=1;html=1;swimlaneLine=1;fillColor=#d5e8d4;strokeColor=#82b366;" vertex="1" parent="1">
            <mxGeometry x="290" y="965" width="180" height="250" as="geometry" />
          </mxCell>
        </object>
        <mxCell id="T3U-AoPDwU73Mw-AAo-e-124" value="" style="shape=tableRow;horizontal=0;startSize=0;swimlaneHead=0;swimlaneBody=0;fillColor=none;collapsible=0;dropTarget=0;points=[[0,0.5],[1,0.5]];portConstraint=eastwest;top=0;left=0;right=0;bottom=1;" vertex="1" parent="T3U-AoPDwU73Mw-AAo-e-123">
          <mxGeometry y="30" width="180" height="60" as="geometry" />
        </mxCell>
        <mxCell id="T3U-AoPDwU73Mw-AAo-e-125" value="PK&lt;br&gt;FK" style="shape=partialRectangle;connectable=0;fillColor=none;top=0;left=0;bottom=0;right=0;fontStyle=1;overflow=hidden;whiteSpace=wrap;html=1;" vertex="1" parent="T3U-AoPDwU73Mw-AAo-e-124">
          <mxGeometry width="30" height="60" as="geometry">
            <mxRectangle width="30" height="60" as="alternateBounds" />
          </mxGeometry>
        </mxCell>
        <mxCell id="T3U-AoPDwU73Mw-AAo-e-126" value="계좌번호&lt;br&gt;&lt;br&gt;은행이름" style="shape=partialRectangle;connectable=0;fillColor=none;top=0;left=0;bottom=0;right=0;align=left;spacingLeft=6;fontStyle=5;overflow=hidden;whiteSpace=wrap;html=1;" vertex="1" parent="T3U-AoPDwU73Mw-AAo-e-124">
          <mxGeometry x="30" width="150" height="60" as="geometry">
            <mxRectangle width="150" height="60" as="alternateBounds" />
          </mxGeometry>
        </mxCell>
        <mxCell id="T3U-AoPDwU73Mw-AAo-e-127" value="" style="shape=tableRow;horizontal=0;startSize=0;swimlaneHead=0;swimlaneBody=0;fillColor=none;collapsible=0;dropTarget=0;points=[[0,0.5],[1,0.5]];portConstraint=eastwest;top=0;left=0;right=0;bottom=0;" vertex="1" parent="T3U-AoPDwU73Mw-AAo-e-123">
          <mxGeometry y="90" width="180" height="30" as="geometry" />
        </mxCell>
        <mxCell id="T3U-AoPDwU73Mw-AAo-e-128" value="" style="shape=partialRectangle;connectable=0;fillColor=none;top=0;left=0;bottom=0;right=0;editable=1;overflow=hidden;whiteSpace=wrap;html=1;" vertex="1" parent="T3U-AoPDwU73Mw-AAo-e-127">
          <mxGeometry width="30" height="30" as="geometry">
            <mxRectangle width="30" height="30" as="alternateBounds" />
          </mxGeometry>
        </mxCell>
        <mxCell id="T3U-AoPDwU73Mw-AAo-e-129" value="계좌 종류" style="shape=partialRectangle;connectable=0;fillColor=none;top=0;left=0;bottom=0;right=0;align=left;spacingLeft=6;overflow=hidden;whiteSpace=wrap;html=1;" vertex="1" parent="T3U-AoPDwU73Mw-AAo-e-127">
          <mxGeometry x="30" width="150" height="30" as="geometry">
            <mxRectangle width="150" height="30" as="alternateBounds" />
          </mxGeometry>
        </mxCell>
        <mxCell id="T3U-AoPDwU73Mw-AAo-e-130" value="" style="shape=tableRow;horizontal=0;startSize=0;swimlaneHead=0;swimlaneBody=0;fillColor=none;collapsible=0;dropTarget=0;points=[[0,0.5],[1,0.5]];portConstraint=eastwest;top=0;left=0;right=0;bottom=0;" vertex="1" parent="T3U-AoPDwU73Mw-AAo-e-123">
          <mxGeometry y="120" width="180" height="30" as="geometry" />
        </mxCell>
        <mxCell id="T3U-AoPDwU73Mw-AAo-e-131" value="" style="shape=partialRectangle;connectable=0;fillColor=none;top=0;left=0;bottom=0;right=0;editable=1;overflow=hidden;whiteSpace=wrap;html=1;" vertex="1" parent="T3U-AoPDwU73Mw-AAo-e-130">
          <mxGeometry width="30" height="30" as="geometry">
            <mxRectangle width="30" height="30" as="alternateBounds" />
          </mxGeometry>
        </mxCell>
        <mxCell id="T3U-AoPDwU73Mw-AAo-e-132" value="예금 잔고" style="shape=partialRectangle;connectable=0;fillColor=none;top=0;left=0;bottom=0;right=0;align=left;spacingLeft=6;overflow=hidden;whiteSpace=wrap;html=1;" vertex="1" parent="T3U-AoPDwU73Mw-AAo-e-130">
          <mxGeometry x="30" width="150" height="30" as="geometry">
            <mxRectangle width="150" height="30" as="alternateBounds" />
          </mxGeometry>
        </mxCell>
        <object label="" ROW="" id="T3U-AoPDwU73Mw-AAo-e-133">
          <mxCell style="shape=tableRow;horizontal=0;startSize=0;swimlaneHead=0;swimlaneBody=0;fillColor=none;collapsible=0;dropTarget=0;points=[[0,0.5],[1,0.5]];portConstraint=eastwest;top=0;left=0;right=0;bottom=0;" vertex="1" parent="T3U-AoPDwU73Mw-AAo-e-123">
            <mxGeometry y="150" width="180" height="50" as="geometry" />
          </mxCell>
        </object>
        <mxCell id="T3U-AoPDwU73Mw-AAo-e-134" value="" style="shape=partialRectangle;connectable=0;fillColor=none;top=0;left=0;bottom=0;right=0;editable=1;overflow=hidden;whiteSpace=wrap;html=1;" vertex="1" parent="T3U-AoPDwU73Mw-AAo-e-133">
          <mxGeometry width="30" height="50" as="geometry">
            <mxRectangle width="30" height="50" as="alternateBounds" />
          </mxGeometry>
        </mxCell>
        <mxCell id="T3U-AoPDwU73Mw-AAo-e-135" value="예금 개설 일자" style="shape=partialRectangle;connectable=0;fillColor=none;top=0;left=0;bottom=0;right=0;align=left;spacingLeft=6;overflow=hidden;whiteSpace=wrap;html=1;" vertex="1" parent="T3U-AoPDwU73Mw-AAo-e-133">
          <mxGeometry x="30" width="150" height="50" as="geometry">
            <mxRectangle width="150" height="50" as="alternateBounds" />
          </mxGeometry>
        </mxCell>
        <object label="" ROW="" id="T3U-AoPDwU73Mw-AAo-e-233">
          <mxCell style="shape=tableRow;horizontal=0;startSize=0;swimlaneHead=0;swimlaneBody=0;fillColor=none;collapsible=0;dropTarget=0;points=[[0,0.5],[1,0.5]];portConstraint=eastwest;top=0;left=0;right=0;bottom=0;" vertex="1" parent="T3U-AoPDwU73Mw-AAo-e-123">
            <mxGeometry y="200" width="180" height="50" as="geometry" />
          </mxCell>
        </object>
        <mxCell id="T3U-AoPDwU73Mw-AAo-e-234" value="" style="shape=partialRectangle;connectable=0;fillColor=none;top=0;left=0;bottom=0;right=0;editable=1;overflow=hidden;whiteSpace=wrap;html=1;" vertex="1" parent="T3U-AoPDwU73Mw-AAo-e-233">
          <mxGeometry width="30" height="50" as="geometry">
            <mxRectangle width="30" height="50" as="alternateBounds" />
          </mxGeometry>
        </mxCell>
        <mxCell id="T3U-AoPDwU73Mw-AAo-e-235" value="카드 신청 여부" style="shape=partialRectangle;connectable=0;fillColor=none;top=0;left=0;bottom=0;right=0;align=left;spacingLeft=6;overflow=hidden;whiteSpace=wrap;html=1;" vertex="1" parent="T3U-AoPDwU73Mw-AAo-e-233">
          <mxGeometry x="30" width="150" height="50" as="geometry">
            <mxRectangle width="150" height="50" as="alternateBounds" />
          </mxGeometry>
        </mxCell>
        <object label="계좌 거래 내역" 카드="카드번호" 거래번호="" id="T3U-AoPDwU73Mw-AAo-e-136">
          <mxCell style="shape=table;startSize=30;container=1;collapsible=1;childLayout=tableLayout;fixedRows=1;rowLines=0;fontStyle=1;align=center;resizeLast=1;html=1;swimlaneLine=1;fillColor=#d5e8d4;strokeColor=#82b366;" vertex="1" parent="1">
            <mxGeometry x="290" y="730" width="180" height="161" as="geometry" />
          </mxCell>
        </object>
        <mxCell id="T3U-AoPDwU73Mw-AAo-e-137" value="" style="shape=tableRow;horizontal=0;startSize=0;swimlaneHead=0;swimlaneBody=0;fillColor=none;collapsible=0;dropTarget=0;points=[[0,0.5],[1,0.5]];portConstraint=eastwest;top=0;left=0;right=0;bottom=1;" vertex="1" parent="T3U-AoPDwU73Mw-AAo-e-136">
          <mxGeometry y="30" width="180" height="61" as="geometry" />
        </mxCell>
        <mxCell id="T3U-AoPDwU73Mw-AAo-e-138" value="PK&lt;br&gt;FK" style="shape=partialRectangle;connectable=0;fillColor=none;top=0;left=0;bottom=0;right=0;fontStyle=1;overflow=hidden;whiteSpace=wrap;html=1;" vertex="1" parent="T3U-AoPDwU73Mw-AAo-e-137">
          <mxGeometry width="30" height="61" as="geometry">
            <mxRectangle width="30" height="61" as="alternateBounds" />
          </mxGeometry>
        </mxCell>
        <mxCell id="T3U-AoPDwU73Mw-AAo-e-139" value="거래 번호&lt;br&gt;&lt;br&gt;계좌 번호" style="shape=partialRectangle;connectable=0;fillColor=none;top=0;left=0;bottom=0;right=0;align=left;spacingLeft=6;fontStyle=5;overflow=hidden;whiteSpace=wrap;html=1;" vertex="1" parent="T3U-AoPDwU73Mw-AAo-e-137">
          <mxGeometry x="30" width="150" height="61" as="geometry">
            <mxRectangle width="150" height="61" as="alternateBounds" />
          </mxGeometry>
        </mxCell>
        <mxCell id="T3U-AoPDwU73Mw-AAo-e-140" value="" style="shape=tableRow;horizontal=0;startSize=0;swimlaneHead=0;swimlaneBody=0;fillColor=none;collapsible=0;dropTarget=0;points=[[0,0.5],[1,0.5]];portConstraint=eastwest;top=0;left=0;right=0;bottom=0;" vertex="1" parent="T3U-AoPDwU73Mw-AAo-e-136">
          <mxGeometry y="91" width="180" height="30" as="geometry" />
        </mxCell>
        <mxCell id="T3U-AoPDwU73Mw-AAo-e-141" value="" style="shape=partialRectangle;connectable=0;fillColor=none;top=0;left=0;bottom=0;right=0;editable=1;overflow=hidden;whiteSpace=wrap;html=1;" vertex="1" parent="T3U-AoPDwU73Mw-AAo-e-140">
          <mxGeometry width="30" height="30" as="geometry">
            <mxRectangle width="30" height="30" as="alternateBounds" />
          </mxGeometry>
        </mxCell>
        <mxCell id="T3U-AoPDwU73Mw-AAo-e-142" value="거래 날짜" style="shape=partialRectangle;connectable=0;fillColor=none;top=0;left=0;bottom=0;right=0;align=left;spacingLeft=6;overflow=hidden;whiteSpace=wrap;html=1;" vertex="1" parent="T3U-AoPDwU73Mw-AAo-e-140">
          <mxGeometry x="30" width="150" height="30" as="geometry">
            <mxRectangle width="150" height="30" as="alternateBounds" />
          </mxGeometry>
        </mxCell>
        <mxCell id="T3U-AoPDwU73Mw-AAo-e-143" value="" style="shape=tableRow;horizontal=0;startSize=0;swimlaneHead=0;swimlaneBody=0;fillColor=none;collapsible=0;dropTarget=0;points=[[0,0.5],[1,0.5]];portConstraint=eastwest;top=0;left=0;right=0;bottom=0;" vertex="1" parent="T3U-AoPDwU73Mw-AAo-e-136">
          <mxGeometry y="121" width="180" height="40" as="geometry" />
        </mxCell>
        <mxCell id="T3U-AoPDwU73Mw-AAo-e-144" value="" style="shape=partialRectangle;connectable=0;fillColor=none;top=0;left=0;bottom=0;right=0;editable=1;overflow=hidden;whiteSpace=wrap;html=1;" vertex="1" parent="T3U-AoPDwU73Mw-AAo-e-143">
          <mxGeometry width="30" height="40" as="geometry">
            <mxRectangle width="30" height="40" as="alternateBounds" />
          </mxGeometry>
        </mxCell>
        <mxCell id="T3U-AoPDwU73Mw-AAo-e-145" value="거래 금액" style="shape=partialRectangle;connectable=0;fillColor=none;top=0;left=0;bottom=0;right=0;align=left;spacingLeft=6;overflow=hidden;whiteSpace=wrap;html=1;" vertex="1" parent="T3U-AoPDwU73Mw-AAo-e-143">
          <mxGeometry x="30" width="150" height="40" as="geometry">
            <mxRectangle width="150" height="40" as="alternateBounds" />
          </mxGeometry>
        </mxCell>
        <object label="입출금" 카드="카드번호" 거래번호="" id="T3U-AoPDwU73Mw-AAo-e-151">
          <mxCell style="shape=table;startSize=30;container=1;collapsible=1;childLayout=tableLayout;fixedRows=1;rowLines=0;fontStyle=1;align=center;resizeLast=1;html=1;swimlaneLine=1;fillColor=#d5e8d4;strokeColor=#82b366;" vertex="1" parent="1">
            <mxGeometry x="40" y="1020" width="180" height="140" as="geometry" />
          </mxCell>
        </object>
        <mxCell id="T3U-AoPDwU73Mw-AAo-e-152" value="" style="shape=tableRow;horizontal=0;startSize=0;swimlaneHead=0;swimlaneBody=0;fillColor=none;collapsible=0;dropTarget=0;points=[[0,0.5],[1,0.5]];portConstraint=eastwest;top=0;left=0;right=0;bottom=1;" vertex="1" parent="T3U-AoPDwU73Mw-AAo-e-151">
          <mxGeometry y="30" width="180" height="50" as="geometry" />
        </mxCell>
        <mxCell id="T3U-AoPDwU73Mw-AAo-e-153" value="PK" style="shape=partialRectangle;connectable=0;fillColor=none;top=0;left=0;bottom=0;right=0;fontStyle=1;overflow=hidden;whiteSpace=wrap;html=1;" vertex="1" parent="T3U-AoPDwU73Mw-AAo-e-152">
          <mxGeometry width="30" height="50" as="geometry">
            <mxRectangle width="30" height="50" as="alternateBounds" />
          </mxGeometry>
        </mxCell>
        <mxCell id="T3U-AoPDwU73Mw-AAo-e-154" value="계좌 번호" style="shape=partialRectangle;connectable=0;fillColor=none;top=0;left=0;bottom=0;right=0;align=left;spacingLeft=6;fontStyle=5;overflow=hidden;whiteSpace=wrap;html=1;" vertex="1" parent="T3U-AoPDwU73Mw-AAo-e-152">
          <mxGeometry x="30" width="150" height="50" as="geometry">
            <mxRectangle width="150" height="50" as="alternateBounds" />
          </mxGeometry>
        </mxCell>
        <mxCell id="T3U-AoPDwU73Mw-AAo-e-155" value="" style="shape=tableRow;horizontal=0;startSize=0;swimlaneHead=0;swimlaneBody=0;fillColor=none;collapsible=0;dropTarget=0;points=[[0,0.5],[1,0.5]];portConstraint=eastwest;top=0;left=0;right=0;bottom=0;" vertex="1" parent="T3U-AoPDwU73Mw-AAo-e-151">
          <mxGeometry y="80" width="180" height="30" as="geometry" />
        </mxCell>
        <mxCell id="T3U-AoPDwU73Mw-AAo-e-156" value="" style="shape=partialRectangle;connectable=0;fillColor=none;top=0;left=0;bottom=0;right=0;editable=1;overflow=hidden;whiteSpace=wrap;html=1;" vertex="1" parent="T3U-AoPDwU73Mw-AAo-e-155">
          <mxGeometry width="30" height="30" as="geometry">
            <mxRectangle width="30" height="30" as="alternateBounds" />
          </mxGeometry>
        </mxCell>
        <mxCell id="T3U-AoPDwU73Mw-AAo-e-157" value="입금" style="shape=partialRectangle;connectable=0;fillColor=none;top=0;left=0;bottom=0;right=0;align=left;spacingLeft=6;overflow=hidden;whiteSpace=wrap;html=1;" vertex="1" parent="T3U-AoPDwU73Mw-AAo-e-155">
          <mxGeometry x="30" width="150" height="30" as="geometry">
            <mxRectangle width="150" height="30" as="alternateBounds" />
          </mxGeometry>
        </mxCell>
        <mxCell id="T3U-AoPDwU73Mw-AAo-e-158" value="" style="shape=tableRow;horizontal=0;startSize=0;swimlaneHead=0;swimlaneBody=0;fillColor=none;collapsible=0;dropTarget=0;points=[[0,0.5],[1,0.5]];portConstraint=eastwest;top=0;left=0;right=0;bottom=0;" vertex="1" parent="T3U-AoPDwU73Mw-AAo-e-151">
          <mxGeometry y="110" width="180" height="30" as="geometry" />
        </mxCell>
        <mxCell id="T3U-AoPDwU73Mw-AAo-e-159" value="" style="shape=partialRectangle;connectable=0;fillColor=none;top=0;left=0;bottom=0;right=0;editable=1;overflow=hidden;whiteSpace=wrap;html=1;" vertex="1" parent="T3U-AoPDwU73Mw-AAo-e-158">
          <mxGeometry width="30" height="30" as="geometry">
            <mxRectangle width="30" height="30" as="alternateBounds" />
          </mxGeometry>
        </mxCell>
        <mxCell id="T3U-AoPDwU73Mw-AAo-e-160" value="출금" style="shape=partialRectangle;connectable=0;fillColor=none;top=0;left=0;bottom=0;right=0;align=left;spacingLeft=6;overflow=hidden;whiteSpace=wrap;html=1;" vertex="1" parent="T3U-AoPDwU73Mw-AAo-e-158">
          <mxGeometry x="30" width="150" height="30" as="geometry">
            <mxRectangle width="150" height="30" as="alternateBounds" />
          </mxGeometry>
        </mxCell>
        <object label="은행" 카드="카드번호" 거래번호="" id="T3U-AoPDwU73Mw-AAo-e-161">
          <mxCell style="shape=table;startSize=20;container=1;collapsible=1;childLayout=tableLayout;fixedRows=1;rowLines=0;fontStyle=1;align=center;resizeLast=1;html=1;swimlaneLine=1;fillColor=#d5e8d4;strokeColor=#82b366;" vertex="1" parent="1">
            <mxGeometry x="29.59" y="730" width="180" height="100" as="geometry" />
          </mxCell>
        </object>
        <mxCell id="T3U-AoPDwU73Mw-AAo-e-162" value="" style="shape=tableRow;horizontal=0;startSize=0;swimlaneHead=0;swimlaneBody=0;fillColor=none;collapsible=0;dropTarget=0;points=[[0,0.5],[1,0.5]];portConstraint=eastwest;top=0;left=0;right=0;bottom=1;" vertex="1" parent="T3U-AoPDwU73Mw-AAo-e-161">
          <mxGeometry y="20" width="180" height="50" as="geometry" />
        </mxCell>
        <mxCell id="T3U-AoPDwU73Mw-AAo-e-163" value="PK" style="shape=partialRectangle;connectable=0;fillColor=none;top=0;left=0;bottom=0;right=0;fontStyle=1;overflow=hidden;whiteSpace=wrap;html=1;" vertex="1" parent="T3U-AoPDwU73Mw-AAo-e-162">
          <mxGeometry width="30" height="50" as="geometry">
            <mxRectangle width="30" height="50" as="alternateBounds" />
          </mxGeometry>
        </mxCell>
        <mxCell id="T3U-AoPDwU73Mw-AAo-e-164" value="은행이름" style="shape=partialRectangle;connectable=0;fillColor=none;top=0;left=0;bottom=0;right=0;align=left;spacingLeft=6;fontStyle=5;overflow=hidden;whiteSpace=wrap;html=1;" vertex="1" parent="T3U-AoPDwU73Mw-AAo-e-162">
          <mxGeometry x="30" width="150" height="50" as="geometry">
            <mxRectangle width="150" height="50" as="alternateBounds" />
          </mxGeometry>
        </mxCell>
        <mxCell id="T3U-AoPDwU73Mw-AAo-e-165" value="" style="shape=tableRow;horizontal=0;startSize=0;swimlaneHead=0;swimlaneBody=0;fillColor=none;collapsible=0;dropTarget=0;points=[[0,0.5],[1,0.5]];portConstraint=eastwest;top=0;left=0;right=0;bottom=0;" vertex="1" parent="T3U-AoPDwU73Mw-AAo-e-161">
          <mxGeometry y="70" width="180" height="30" as="geometry" />
        </mxCell>
        <mxCell id="T3U-AoPDwU73Mw-AAo-e-166" value="" style="shape=partialRectangle;connectable=0;fillColor=none;top=0;left=0;bottom=0;right=0;editable=1;overflow=hidden;whiteSpace=wrap;html=1;" vertex="1" parent="T3U-AoPDwU73Mw-AAo-e-165">
          <mxGeometry width="30" height="30" as="geometry">
            <mxRectangle width="30" height="30" as="alternateBounds" />
          </mxGeometry>
        </mxCell>
        <mxCell id="T3U-AoPDwU73Mw-AAo-e-167" value="지점" style="shape=partialRectangle;connectable=0;fillColor=none;top=0;left=0;bottom=0;right=0;align=left;spacingLeft=6;overflow=hidden;whiteSpace=wrap;html=1;" vertex="1" parent="T3U-AoPDwU73Mw-AAo-e-165">
          <mxGeometry x="30" width="150" height="30" as="geometry">
            <mxRectangle width="150" height="30" as="alternateBounds" />
          </mxGeometry>
        </mxCell>
        <object label="카드" 카드="카드번호" 거래번호="" id="T3U-AoPDwU73Mw-AAo-e-92">
          <mxCell style="shape=table;startSize=30;container=1;collapsible=1;childLayout=tableLayout;fixedRows=1;rowLines=0;fontStyle=1;align=center;resizeLast=1;html=1;swimlaneLine=1;fillColor=#d5e8d4;strokeColor=#82b366;" vertex="1" parent="1">
            <mxGeometry x="290" y="450" width="180" height="210" as="geometry" />
          </mxCell>
        </object>
        <mxCell id="T3U-AoPDwU73Mw-AAo-e-93" value="" style="shape=tableRow;horizontal=0;startSize=0;swimlaneHead=0;swimlaneBody=0;fillColor=none;collapsible=0;dropTarget=0;points=[[0,0.5],[1,0.5]];portConstraint=eastwest;top=0;left=0;right=0;bottom=1;" vertex="1" parent="T3U-AoPDwU73Mw-AAo-e-92">
          <mxGeometry y="30" width="180" height="60" as="geometry" />
        </mxCell>
        <mxCell id="T3U-AoPDwU73Mw-AAo-e-94" value="PK&lt;br&gt;FK" style="shape=partialRectangle;connectable=0;fillColor=none;top=0;left=0;bottom=0;right=0;fontStyle=1;overflow=hidden;whiteSpace=wrap;html=1;" vertex="1" parent="T3U-AoPDwU73Mw-AAo-e-93">
          <mxGeometry width="30" height="60" as="geometry">
            <mxRectangle width="30" height="60" as="alternateBounds" />
          </mxGeometry>
        </mxCell>
        <mxCell id="T3U-AoPDwU73Mw-AAo-e-95" value="카드번호&lt;br&gt;&lt;br&gt;계좌번호" style="shape=partialRectangle;connectable=0;fillColor=none;top=0;left=0;bottom=0;right=0;align=left;spacingLeft=6;fontStyle=5;overflow=hidden;whiteSpace=wrap;html=1;" vertex="1" parent="T3U-AoPDwU73Mw-AAo-e-93">
          <mxGeometry x="30" width="150" height="60" as="geometry">
            <mxRectangle width="150" height="60" as="alternateBounds" />
          </mxGeometry>
        </mxCell>
        <mxCell id="T3U-AoPDwU73Mw-AAo-e-96" value="" style="shape=tableRow;horizontal=0;startSize=0;swimlaneHead=0;swimlaneBody=0;fillColor=none;collapsible=0;dropTarget=0;points=[[0,0.5],[1,0.5]];portConstraint=eastwest;top=0;left=0;right=0;bottom=0;" vertex="1" parent="T3U-AoPDwU73Mw-AAo-e-92">
          <mxGeometry y="90" width="180" height="30" as="geometry" />
        </mxCell>
        <mxCell id="T3U-AoPDwU73Mw-AAo-e-97" value="" style="shape=partialRectangle;connectable=0;fillColor=none;top=0;left=0;bottom=0;right=0;editable=1;overflow=hidden;whiteSpace=wrap;html=1;" vertex="1" parent="T3U-AoPDwU73Mw-AAo-e-96">
          <mxGeometry width="30" height="30" as="geometry">
            <mxRectangle width="30" height="30" as="alternateBounds" />
          </mxGeometry>
        </mxCell>
        <mxCell id="T3U-AoPDwU73Mw-AAo-e-98" value="카드 종류" style="shape=partialRectangle;connectable=0;fillColor=none;top=0;left=0;bottom=0;right=0;align=left;spacingLeft=6;overflow=hidden;whiteSpace=wrap;html=1;" vertex="1" parent="T3U-AoPDwU73Mw-AAo-e-96">
          <mxGeometry x="30" width="150" height="30" as="geometry">
            <mxRectangle width="150" height="30" as="alternateBounds" />
          </mxGeometry>
        </mxCell>
        <mxCell id="T3U-AoPDwU73Mw-AAo-e-99" value="" style="shape=tableRow;horizontal=0;startSize=0;swimlaneHead=0;swimlaneBody=0;fillColor=none;collapsible=0;dropTarget=0;points=[[0,0.5],[1,0.5]];portConstraint=eastwest;top=0;left=0;right=0;bottom=0;" vertex="1" parent="T3U-AoPDwU73Mw-AAo-e-92">
          <mxGeometry y="120" width="180" height="30" as="geometry" />
        </mxCell>
        <mxCell id="T3U-AoPDwU73Mw-AAo-e-100" value="" style="shape=partialRectangle;connectable=0;fillColor=none;top=0;left=0;bottom=0;right=0;editable=1;overflow=hidden;whiteSpace=wrap;html=1;" vertex="1" parent="T3U-AoPDwU73Mw-AAo-e-99">
          <mxGeometry width="30" height="30" as="geometry">
            <mxRectangle width="30" height="30" as="alternateBounds" />
          </mxGeometry>
        </mxCell>
        <mxCell id="T3U-AoPDwU73Mw-AAo-e-101" value="신청일자" style="shape=partialRectangle;connectable=0;fillColor=none;top=0;left=0;bottom=0;right=0;align=left;spacingLeft=6;overflow=hidden;whiteSpace=wrap;html=1;" vertex="1" parent="T3U-AoPDwU73Mw-AAo-e-99">
          <mxGeometry x="30" width="150" height="30" as="geometry">
            <mxRectangle width="150" height="30" as="alternateBounds" />
          </mxGeometry>
        </mxCell>
        <object label="" ROW="" id="T3U-AoPDwU73Mw-AAo-e-102">
          <mxCell style="shape=tableRow;horizontal=0;startSize=0;swimlaneHead=0;swimlaneBody=0;fillColor=none;collapsible=0;dropTarget=0;points=[[0,0.5],[1,0.5]];portConstraint=eastwest;top=0;left=0;right=0;bottom=0;" vertex="1" parent="T3U-AoPDwU73Mw-AAo-e-92">
            <mxGeometry y="150" width="180" height="30" as="geometry" />
          </mxCell>
        </object>
        <mxCell id="T3U-AoPDwU73Mw-AAo-e-103" value="" style="shape=partialRectangle;connectable=0;fillColor=none;top=0;left=0;bottom=0;right=0;editable=1;overflow=hidden;whiteSpace=wrap;html=1;" vertex="1" parent="T3U-AoPDwU73Mw-AAo-e-102">
          <mxGeometry width="30" height="30" as="geometry">
            <mxRectangle width="30" height="30" as="alternateBounds" />
          </mxGeometry>
        </mxCell>
        <mxCell id="T3U-AoPDwU73Mw-AAo-e-104" value="한도 금액" style="shape=partialRectangle;connectable=0;fillColor=none;top=0;left=0;bottom=0;right=0;align=left;spacingLeft=6;overflow=hidden;whiteSpace=wrap;html=1;" vertex="1" parent="T3U-AoPDwU73Mw-AAo-e-102">
          <mxGeometry x="30" width="150" height="30" as="geometry">
            <mxRectangle width="150" height="30" as="alternateBounds" />
          </mxGeometry>
        </mxCell>
        <object label="" ROW="" id="T3U-AoPDwU73Mw-AAo-e-237">
          <mxCell style="shape=tableRow;horizontal=0;startSize=0;swimlaneHead=0;swimlaneBody=0;fillColor=none;collapsible=0;dropTarget=0;points=[[0,0.5],[1,0.5]];portConstraint=eastwest;top=0;left=0;right=0;bottom=0;" vertex="1" parent="T3U-AoPDwU73Mw-AAo-e-92">
            <mxGeometry y="180" width="180" height="30" as="geometry" />
          </mxCell>
        </object>
        <mxCell id="T3U-AoPDwU73Mw-AAo-e-238" value="" style="shape=partialRectangle;connectable=0;fillColor=none;top=0;left=0;bottom=0;right=0;editable=1;overflow=hidden;whiteSpace=wrap;html=1;" vertex="1" parent="T3U-AoPDwU73Mw-AAo-e-237">
          <mxGeometry width="30" height="30" as="geometry">
            <mxRectangle width="30" height="30" as="alternateBounds" />
          </mxGeometry>
        </mxCell>
        <mxCell id="T3U-AoPDwU73Mw-AAo-e-239" value="결제일자" style="shape=partialRectangle;connectable=0;fillColor=none;top=0;left=0;bottom=0;right=0;align=left;spacingLeft=6;overflow=hidden;whiteSpace=wrap;html=1;" vertex="1" parent="T3U-AoPDwU73Mw-AAo-e-237">
          <mxGeometry x="30" width="150" height="30" as="geometry">
            <mxRectangle width="150" height="30" as="alternateBounds" />
          </mxGeometry>
        </mxCell>
        <mxCell id="T3U-AoPDwU73Mw-AAo-e-240" value="" style="edgeStyle=orthogonalEdgeStyle;fontSize=12;html=1;endArrow=ERzeroToMany;endFill=1;rounded=0;fontFamily=Helvetica;fontColor=default;entryX=1.013;entryY=0.056;entryDx=0;entryDy=0;entryPerimeter=0;strokeColor=default;exitX=0.5;exitY=0;exitDx=0;exitDy=0;" edge="1" parent="1" source="T3U-AoPDwU73Mw-AAo-e-106" target="T3U-AoPDwU73Mw-AAo-e-96">
          <mxGeometry width="100" height="100" relative="1" as="geometry">
            <mxPoint x="670" y="550" as="sourcePoint" />
            <mxPoint x="450" y="740" as="targetPoint" />
          </mxGeometry>
        </mxCell>
        <mxCell id="T3U-AoPDwU73Mw-AAo-e-241" value="" style="fontSize=12;html=1;endArrow=ERone;endFill=1;rounded=0;strokeColor=default;" edge="1" parent="1">
          <mxGeometry width="100" height="100" relative="1" as="geometry">
            <mxPoint x="666" y="1100" as="sourcePoint" />
            <mxPoint x="666" y="820" as="targetPoint" />
          </mxGeometry>
        </mxCell>
        <mxCell id="T3U-AoPDwU73Mw-AAo-e-242" value="" style="fontSize=12;html=1;endArrow=ERone;endFill=1;rounded=0;strokeColor=default;entryX=1;entryY=0.5;entryDx=0;entryDy=0;" edge="1" parent="1" target="T3U-AoPDwU73Mw-AAo-e-127">
          <mxGeometry width="100" height="100" relative="1" as="geometry">
            <mxPoint x="660" y="1070" as="sourcePoint" />
            <mxPoint x="676" y="830" as="targetPoint" />
          </mxGeometry>
        </mxCell>
      </root>
    </mxGraphModel>
  </diagram>
</mxfile>
